<svg width="926" height="1058" viewBox="0 0 926 1058" fill="none" xmlns="http://www.w3.org/2000/svg">
<path d="M28.5301 73.7627L1.2301 46.3057C-0.410034 44.6561 -0.410034 41.9815 1.2301 40.3318L7.16966 34.3579C8.8098 32.7082 11.4693 32.7082 13.1094 34.3579L31.5 52.8541L70.8906 13.2372C72.5308 11.5876 75.1902 11.5876 76.8303 13.2372L82.7699 19.2111C84.41 20.8606 84.41 23.5352 82.7699 25.1849L34.4699 73.7628C32.8296 75.4124 30.1703 75.4124 28.5301 73.7627Z" fill="white" fill-opacity="0.06"/>
<path d="M161.53 187.763L134.23 160.306C132.59 158.656 132.59 155.982 134.23 154.332L140.17 148.358C141.81 146.708 144.469 146.708 146.109 148.358L164.5 166.854L203.891 127.237C205.531 125.588 208.19 125.588 209.83 127.237L215.77 133.211C217.41 134.861 217.41 137.535 215.77 139.185L167.47 187.763C165.83 189.412 163.17 189.412 161.53 187.763Z" fill="white" fill-opacity="0.06"/>
<path fill-rule="evenodd" clip-rule="evenodd" d="M174 66C186.703 66 197 55.7025 197 43C197 30.2975 186.703 20 174 20C161.297 20 151 30.2975 151 43C151 55.7025 161.297 66 174 66ZM174 86C197.748 86 217 66.7482 217 43C217 19.2518 197.748 0 174 0C150.252 0 131 19.2518 131 43C131 66.7482 150.252 86 174 86Z" fill="white" fill-opacity="0.06"/>
<path fill-rule="evenodd" clip-rule="evenodd" d="M43 180C55.7025 180 66 169.703 66 157C66 144.297 55.7025 134 43 134C30.2975 134 20 144.297 20 157C20 169.703 30.2975 180 43 180ZM43 200C66.7482 200 86 180.748 86 157C86 133.252 66.7482 114 43 114C19.2518 114 5.96051e-08 133.252 5.96051e-08 157C5.96051e-08 180.748 19.2518 200 43 200Z" fill="white" fill-opacity="0.06"/>
<path d="M28.5301 304.763L1.2301 277.306C-0.410034 275.656 -0.410034 272.982 1.2301 271.332L7.16966 265.358C8.8098 263.708 11.4693 263.708 13.1094 265.358L31.5 283.854L70.8906 244.237C72.5308 242.588 75.1902 242.588 76.8303 244.237L82.7699 250.211C84.41 251.861 84.41 254.535 82.7699 256.185L34.4699 304.763C32.8296 306.412 30.1703 306.412 28.5301 304.763Z" fill="white" fill-opacity="0.06"/>
<path d="M161.53 418.763L134.23 391.306C132.59 389.656 132.59 386.982 134.23 385.332L140.17 379.358C141.81 377.708 144.469 377.708 146.109 379.358L164.5 397.854L203.891 358.237C205.531 356.588 208.19 356.588 209.83 358.237L215.77 364.211C217.41 365.861 217.41 368.535 215.77 370.185L167.47 418.763C165.83 420.412 163.17 420.412 161.53 418.763Z" fill="white" fill-opacity="0.06"/>
<path fill-rule="evenodd" clip-rule="evenodd" d="M174 297C186.703 297 197 286.703 197 274C197 261.297 186.703 251 174 251C161.297 251 151 261.297 151 274C151 286.703 161.297 297 174 297ZM174 317C197.748 317 217 297.748 217 274C217 250.252 197.748 231 174 231C150.252 231 131 250.252 131 274C131 297.748 150.252 317 174 317Z" fill="white" fill-opacity="0.06"/>
<path fill-rule="evenodd" clip-rule="evenodd" d="M43 411C55.7025 411 66 400.703 66 388C66 375.297 55.7025 365 43 365C30.2975 365 20 375.297 20 388C20 400.703 30.2975 411 43 411ZM43 431C66.7482 431 86 411.748 86 388C86 364.252 66.7482 345 43 345C19.2518 345 5.96051e-08 364.252 5.96051e-08 388C5.96051e-08 411.748 19.2518 431 43 431Z" fill="white" fill-opacity="0.06"/>
<path d="M291.53 73.7627L264.23 46.3057C262.59 44.6561 262.59 41.9815 264.23 40.3318L270.17 34.3579C271.81 32.7082 274.469 32.7082 276.109 34.3579L294.5 52.8541L333.891 13.2372C335.531 11.5876 338.19 11.5876 339.83 13.2372L345.77 19.2111C347.41 20.8606 347.41 23.5352 345.77 25.1849L297.47 73.7628C295.83 75.4124 293.17 75.4124 291.53 73.7627Z" fill="white" fill-opacity="0.06"/>
<path d="M424.53 187.763L397.23 160.306C395.59 158.656 395.59 155.982 397.23 154.332L403.17 148.358C404.81 146.708 407.469 146.708 409.109 148.358L427.5 166.854L466.891 127.237C468.531 125.588 471.19 125.588 472.83 127.237L478.77 133.211C480.41 134.861 480.41 137.535 478.77 139.185L430.47 187.763C428.83 189.412 426.17 189.412 424.53 187.763Z" fill="white" fill-opacity="0.06"/>
<path fill-rule="evenodd" clip-rule="evenodd" d="M437 66C449.703 66 460 55.7025 460 43C460 30.2975 449.703 20 437 20C424.297 20 414 30.2975 414 43C414 55.7025 424.297 66 437 66ZM437 86C460.748 86 480 66.7482 480 43C480 19.2518 460.748 0 437 0C413.252 0 394 19.2518 394 43C394 66.7482 413.252 86 437 86Z" fill="white" fill-opacity="0.06"/>
<path fill-rule="evenodd" clip-rule="evenodd" d="M306 180C318.703 180 329 169.703 329 157C329 144.297 318.703 134 306 134C293.297 134 283 144.297 283 157C283 169.703 293.297 180 306 180ZM306 200C329.748 200 349 180.748 349 157C349 133.252 329.748 114 306 114C282.252 114 263 133.252 263 157C263 180.748 282.252 200 306 200Z" fill="white" fill-opacity="0.06"/>
<path d="M291.53 304.763L264.23 277.306C262.59 275.656 262.59 272.982 264.23 271.332L270.17 265.358C271.81 263.708 274.469 263.708 276.109 265.358L294.5 283.854L333.891 244.237C335.531 242.588 338.19 242.588 339.83 244.237L345.77 250.211C347.41 251.861 347.41 254.535 345.77 256.185L297.47 304.763C295.83 306.412 293.17 306.412 291.53 304.763Z" fill="white" fill-opacity="0.06"/>
<path d="M424.53 418.763L397.23 391.306C395.59 389.656 395.59 386.982 397.23 385.332L403.17 379.358C404.81 377.708 407.469 377.708 409.109 379.358L427.5 397.854L466.891 358.237C468.531 356.588 471.19 356.588 472.83 358.237L478.77 364.211C480.41 365.861 480.41 368.535 478.77 370.185L430.47 418.763C428.83 420.412 426.17 420.412 424.53 418.763Z" fill="white" fill-opacity="0.06"/>
<path fill-rule="evenodd" clip-rule="evenodd" d="M437 297C449.703 297 460 286.703 460 274C460 261.297 449.703 251 437 251C424.297 251 414 261.297 414 274C414 286.703 424.297 297 437 297ZM437 317C460.748 317 480 297.748 480 274C480 250.252 460.748 231 437 231C413.252 231 394 250.252 394 274C394 297.748 413.252 317 437 317Z" fill="white" fill-opacity="0.06"/>
<path fill-rule="evenodd" clip-rule="evenodd" d="M306 411C318.703 411 329 400.703 329 388C329 375.297 318.703 365 306 365C293.297 365 283 375.297 283 388C283 400.703 293.297 411 306 411ZM306 431C329.748 431 349 411.748 349 388C349 364.252 329.748 345 306 345C282.252 345 263 364.252 263 388C263 411.748 282.252 431 306 431Z" fill="white" fill-opacity="0.06"/>
<path d="M28.5301 521.763L1.2301 494.306C-0.410034 492.656 -0.410034 489.982 1.2301 488.332L7.16966 482.358C8.8098 480.708 11.4693 480.708 13.1094 482.358L31.5 500.854L70.8906 461.237C72.5308 459.588 75.1902 459.588 76.8303 461.237L82.7699 467.211C84.41 468.861 84.41 471.535 82.7699 473.185L34.4699 521.763C32.8296 523.412 30.1703 523.412 28.5301 521.763Z" fill="white" fill-opacity="0.06"/>
<path d="M161.53 635.763L134.23 608.306C132.59 606.656 132.59 603.982 134.23 602.332L140.17 596.358C141.81 594.708 144.469 594.708 146.109 596.358L164.5 614.854L203.891 575.237C205.531 573.588 208.19 573.588 209.83 575.237L215.77 581.211C217.41 582.861 217.41 585.535 215.77 587.185L167.47 635.763C165.83 637.412 163.17 637.412 161.53 635.763Z" fill="white" fill-opacity="0.06"/>
<path fill-rule="evenodd" clip-rule="evenodd" d="M174 514C186.703 514 197 503.703 197 491C197 478.297 186.703 468 174 468C161.297 468 151 478.297 151 491C151 503.703 161.297 514 174 514ZM174 534C197.748 534 217 514.748 217 491C217 467.252 197.748 448 174 448C150.252 448 131 467.252 131 491C131 514.748 150.252 534 174 534Z" fill="white" fill-opacity="0.06"/>
<path fill-rule="evenodd" clip-rule="evenodd" d="M43 628C55.7025 628 66 617.703 66 605C66 592.297 55.7025 582 43 582C30.2975 582 20 592.297 20 605C20 617.703 30.2975 628 43 628ZM43 648C66.7482 648 86 628.748 86 605C86 581.252 66.7482 562 43 562C19.2518 562 5.96051e-08 581.252 5.96051e-08 605C5.96051e-08 628.748 19.2518 648 43 648Z" fill="white" fill-opacity="0.06"/>
<path d="M28.5301 752.763L1.2301 725.306C-0.410034 723.656 -0.410034 720.982 1.2301 719.332L7.16966 713.358C8.8098 711.708 11.4693 711.708 13.1094 713.358L31.5 731.854L70.8906 692.237C72.5308 690.588 75.1902 690.588 76.8303 692.237L82.7699 698.211C84.41 699.861 84.41 702.535 82.7699 704.185L34.4699 752.763C32.8296 754.412 30.1703 754.412 28.5301 752.763Z" fill="white" fill-opacity="0.06"/>
<path d="M161.53 866.763L134.23 839.306C132.59 837.656 132.59 834.982 134.23 833.332L140.17 827.358C141.81 825.708 144.469 825.708 146.109 827.358L164.5 845.854L203.891 806.237C205.531 804.588 208.19 804.588 209.83 806.237L215.77 812.211C217.41 813.861 217.41 816.535 215.77 818.185L167.47 866.763C165.83 868.412 163.17 868.412 161.53 866.763Z" fill="white" fill-opacity="0.06"/>
<path fill-rule="evenodd" clip-rule="evenodd" d="M174 745C186.703 745 197 734.703 197 722C197 709.297 186.703 699 174 699C161.297 699 151 709.297 151 722C151 734.703 161.297 745 174 745ZM174 765C197.748 765 217 745.748 217 722C217 698.252 197.748 679 174 679C150.252 679 131 698.252 131 722C131 745.748 150.252 765 174 765Z" fill="white" fill-opacity="0.06"/>
<path fill-rule="evenodd" clip-rule="evenodd" d="M43 859C55.7025 859 66 848.703 66 836C66 823.297 55.7025 813 43 813C30.2975 813 20 823.297 20 836C20 848.703 30.2975 859 43 859ZM43 879C66.7482 879 86 859.748 86 836C86 812.252 66.7482 793 43 793C19.2518 793 5.96051e-08 812.252 5.96051e-08 836C5.96051e-08 859.748 19.2518 879 43 879Z" fill="white" fill-opacity="0.06"/>
<path d="M291.53 521.763L264.23 494.306C262.59 492.656 262.59 489.982 264.23 488.332L270.17 482.358C271.81 480.708 274.469 480.708 276.109 482.358L294.5 500.854L333.891 461.237C335.531 459.588 338.19 459.588 339.83 461.237L345.77 467.211C347.41 468.861 347.41 471.535 345.77 473.185L297.47 521.763C295.83 523.412 293.17 523.412 291.53 521.763Z" fill="white" fill-opacity="0.06"/>
<path d="M424.53 635.763L397.23 608.306C395.59 606.656 395.59 603.982 397.23 602.332L403.17 596.358C404.81 594.708 407.469 594.708 409.109 596.358L427.5 614.854L466.891 575.237C468.531 573.588 471.19 573.588 472.83 575.237L478.77 581.211C480.41 582.861 480.41 585.535 478.77 587.185L430.47 635.763C428.83 637.412 426.17 637.412 424.53 635.763Z" fill="white" fill-opacity="0.06"/>
<path fill-rule="evenodd" clip-rule="evenodd" d="M437 514C449.703 514 460 503.703 460 491C460 478.297 449.703 468 437 468C424.297 468 414 478.297 414 491C414 503.703 424.297 514 437 514ZM437 534C460.748 534 480 514.748 480 491C480 467.252 460.748 448 437 448C413.252 448 394 467.252 394 491C394 514.748 413.252 534 437 534Z" fill="white" fill-opacity="0.06"/>
<path fill-rule="evenodd" clip-rule="evenodd" d="M306 628C318.703 628 329 617.703 329 605C329 592.297 318.703 582 306 582C293.297 582 283 592.297 283 605C283 617.703 293.297 628 306 628ZM306 648C329.748 648 349 628.748 349 605C349 581.252 329.748 562 306 562C282.252 562 263 581.252 263 605C263 628.748 282.252 648 306 648Z" fill="white" fill-opacity="0.06"/>
<path d="M291.53 752.763L264.23 725.306C262.59 723.656 262.59 720.982 264.23 719.332L270.17 713.358C271.81 711.708 274.469 711.708 276.109 713.358L294.5 731.854L333.891 692.237C335.531 690.588 338.19 690.588 339.83 692.237L345.77 698.211C347.41 699.861 347.41 702.535 345.77 704.185L297.47 752.763C295.83 754.412 293.17 754.412 291.53 752.763Z" fill="white" fill-opacity="0.06"/>
<path d="M424.53 866.763L397.23 839.306C395.59 837.656 395.59 834.982 397.23 833.332L403.17 827.358C404.81 825.708 407.469 825.708 409.109 827.358L427.5 845.854L466.891 806.237C468.531 804.588 471.19 804.588 472.83 806.237L478.77 812.211C480.41 813.861 480.41 816.535 478.77 818.185L430.47 866.763C428.83 868.412 426.17 868.412 424.53 866.763Z" fill="white" fill-opacity="0.06"/>
<path fill-rule="evenodd" clip-rule="evenodd" d="M437 745C449.703 745 460 734.703 460 722C460 709.297 449.703 699 437 699C424.297 699 414 709.297 414 722C414 734.703 424.297 745 437 745ZM437 765C460.748 765 480 745.748 480 722C480 698.252 460.748 679 437 679C413.252 679 394 698.252 394 722C394 745.748 413.252 765 437 765Z" fill="white" fill-opacity="0.06"/>
<path fill-rule="evenodd" clip-rule="evenodd" d="M306 859C318.703 859 329 848.703 329 836C329 823.297 318.703 813 306 813C293.297 813 283 823.297 283 836C283 848.703 293.297 859 306 859ZM306 879C329.748 879 349 859.748 349 836C349 812.252 329.748 793 306 793C282.252 793 263 812.252 263 836C263 859.748 282.252 879 306 879Z" fill="white" fill-opacity="0.06"/>
<path d="M28.5301 969.763L1.2301 942.306C-0.410034 940.656 -0.410034 937.982 1.2301 936.332L7.16966 930.358C8.8098 928.708 11.4693 928.708 13.1094 930.358L31.5 948.854L70.8906 909.237C72.5308 907.588 75.1902 907.588 76.8303 909.237L82.7699 915.211C84.41 916.861 84.41 919.535 82.7699 921.185L34.4699 969.763C32.8296 971.412 30.1703 971.412 28.5301 969.763Z" fill="white" fill-opacity="0.06"/>
<path d="M161.53 1083.76L134.23 1056.31C132.59 1054.66 132.59 1051.98 134.23 1050.33L140.17 1044.36C141.81 1042.71 144.469 1042.71 146.109 1044.36L164.5 1062.85L203.891 1023.24C205.531 1021.59 208.19 1021.59 209.83 1023.24L215.77 1029.21C217.41 1030.86 217.41 1033.54 215.77 1035.18L167.47 1083.76C165.83 1085.41 163.17 1085.41 161.53 1083.76Z" fill="white" fill-opacity="0.06"/>
<path fill-rule="evenodd" clip-rule="evenodd" d="M174 962C186.703 962 197 951.703 197 939C197 926.297 186.703 916 174 916C161.297 916 151 926.297 151 939C151 951.703 161.297 962 174 962ZM174 982C197.748 982 217 962.748 217 939C217 915.252 197.748 896 174 896C150.252 896 131 915.252 131 939C131 962.748 150.252 982 174 982Z" fill="white" fill-opacity="0.06"/>
<path fill-rule="evenodd" clip-rule="evenodd" d="M43 1076C55.7025 1076 66 1065.7 66 1053C66 1040.3 55.7025 1030 43 1030C30.2975 1030 20 1040.3 20 1053C20 1065.7 30.2975 1076 43 1076ZM43 1096C66.7482 1096 86 1076.75 86 1053C86 1029.25 66.7482 1010 43 1010C19.2518 1010 5.96051e-08 1029.25 5.96051e-08 1053C5.96051e-08 1076.75 19.2518 1096 43 1096Z" fill="white" fill-opacity="0.06"/>
<path d="M28.5301 1200.76L1.2301 1173.31C-0.410034 1171.66 -0.410034 1168.98 1.2301 1167.33L7.16966 1161.36C8.8098 1159.71 11.4693 1159.71 13.1094 1161.36L31.5 1179.85L70.8906 1140.24C72.5308 1138.59 75.1902 1138.59 76.8303 1140.24L82.7699 1146.21C84.41 1147.86 84.41 1150.54 82.7699 1152.18L34.4699 1200.76C32.8296 1202.41 30.1703 1202.41 28.5301 1200.76Z" fill="white" fill-opacity="0.06"/>
<path d="M161.53 1314.76L134.23 1287.31C132.59 1285.66 132.59 1282.98 134.23 1281.33L140.17 1275.36C141.81 1273.71 144.469 1273.71 146.109 1275.36L164.5 1293.85L203.891 1254.24C205.531 1252.59 208.19 1252.59 209.83 1254.24L215.77 1260.21C217.41 1261.86 217.41 1264.54 215.77 1266.18L167.47 1314.76C165.83 1316.41 163.17 1316.41 161.53 1314.76Z" fill="white" fill-opacity="0.06"/>
<path fill-rule="evenodd" clip-rule="evenodd" d="M174 1193C186.703 1193 197 1182.7 197 1170C197 1157.3 186.703 1147 174 1147C161.297 1147 151 1157.3 151 1170C151 1182.7 161.297 1193 174 1193ZM174 1213C197.748 1213 217 1193.75 217 1170C217 1146.25 197.748 1127 174 1127C150.252 1127 131 1146.25 131 1170C131 1193.75 150.252 1213 174 1213Z" fill="white" fill-opacity="0.06"/>
<path fill-rule="evenodd" clip-rule="evenodd" d="M43 1307C55.7025 1307 66 1296.7 66 1284C66 1271.3 55.7025 1261 43 1261C30.2975 1261 20 1271.3 20 1284C20 1296.7 30.2975 1307 43 1307ZM43 1327C66.7482 1327 86 1307.75 86 1284C86 1260.25 66.7482 1241 43 1241C19.2518 1241 5.96051e-08 1260.25 5.96051e-08 1284C5.96051e-08 1307.75 19.2518 1327 43 1327Z" fill="white" fill-opacity="0.06"/>
<path d="M291.53 969.763L264.23 942.306C262.59 940.656 262.59 937.982 264.23 936.332L270.17 930.358C271.81 928.708 274.469 928.708 276.109 930.358L294.5 948.854L333.891 909.237C335.531 907.588 338.19 907.588 339.83 909.237L345.77 915.211C347.41 916.861 347.41 919.535 345.77 921.185L297.47 969.763C295.83 971.412 293.17 971.412 291.53 969.763Z" fill="white" fill-opacity="0.06"/>
<path d="M424.53 1083.76L397.23 1056.31C395.59 1054.66 395.59 1051.98 397.23 1050.33L403.17 1044.36C404.81 1042.71 407.469 1042.71 409.109 1044.36L427.5 1062.85L466.891 1023.24C468.531 1021.59 471.19 1021.59 472.83 1023.24L478.77 1029.21C480.41 1030.86 480.41 1033.54 478.77 1035.18L430.47 1083.76C428.83 1085.41 426.17 1085.41 424.53 1083.76Z" fill="white" fill-opacity="0.06"/>
<path fill-rule="evenodd" clip-rule="evenodd" d="M437 962C449.703 962 460 951.703 460 939C460 926.297 449.703 916 437 916C424.297 916 414 926.297 414 939C414 951.703 424.297 962 437 962ZM437 982C460.748 982 480 962.748 480 939C480 915.252 460.748 896 437 896C413.252 896 394 915.252 394 939C394 962.748 413.252 982 437 982Z" fill="white" fill-opacity="0.06"/>
<path fill-rule="evenodd" clip-rule="evenodd" d="M306 1076C318.703 1076 329 1065.7 329 1053C329 1040.3 318.703 1030 306 1030C293.297 1030 283 1040.3 283 1053C283 1065.7 293.297 1076 306 1076ZM306 1096C329.748 1096 349 1076.75 349 1053C349 1029.25 329.748 1010 306 1010C282.252 1010 263 1029.25 263 1053C263 1076.75 282.252 1096 306 1096Z" fill="white" fill-opacity="0.06"/>
<path d="M291.53 1200.76L264.23 1173.31C262.59 1171.66 262.59 1168.98 264.23 1167.33L270.17 1161.36C271.81 1159.71 274.469 1159.71 276.109 1161.36L294.5 1179.85L333.891 1140.24C335.531 1138.59 338.19 1138.59 339.83 1140.24L345.77 1146.21C347.41 1147.86 347.41 1150.54 345.77 1152.18L297.47 1200.76C295.83 1202.41 293.17 1202.41 291.53 1200.76Z" fill="white" fill-opacity="0.06"/>
<path d="M424.53 1314.76L397.23 1287.31C395.59 1285.66 395.59 1282.98 397.23 1281.33L403.17 1275.36C404.81 1273.71 407.469 1273.71 409.109 1275.36L427.5 1293.85L466.891 1254.24C468.531 1252.59 471.19 1252.59 472.83 1254.24L478.77 1260.21C480.41 1261.86 480.41 1264.54 478.77 1266.18L430.47 1314.76C428.83 1316.41 426.17 1316.41 424.53 1314.76Z" fill="white" fill-opacity="0.06"/>
<path fill-rule="evenodd" clip-rule="evenodd" d="M437 1193C449.703 1193 460 1182.7 460 1170C460 1157.3 449.703 1147 437 1147C424.297 1147 414 1157.3 414 1170C414 1182.7 424.297 1193 437 1193ZM437 1213C460.748 1213 480 1193.75 480 1170C480 1146.25 460.748 1127 437 1127C413.252 1127 394 1146.25 394 1170C394 1193.75 413.252 1213 437 1213Z" fill="white" fill-opacity="0.06"/>
<path fill-rule="evenodd" clip-rule="evenodd" d="M306 1307C318.703 1307 329 1296.7 329 1284C329 1271.3 318.703 1261 306 1261C293.297 1261 283 1271.3 283 1284C283 1296.7 293.297 1307 306 1307ZM306 1327C329.748 1327 349 1307.75 349 1284C349 1260.25 329.748 1241 306 1241C282.252 1241 263 1260.25 263 1284C263 1307.75 282.252 1327 306 1327Z" fill="white" fill-opacity="0.06"/>
<path d="M545.53 73.7627L518.23 46.3057C516.59 44.6561 516.59 41.9815 518.23 40.3318L524.17 34.3579C525.81 32.7082 528.469 32.7082 530.109 34.3579L548.5 52.8541L587.891 13.2372C589.531 11.5876 592.19 11.5876 593.83 13.2372L599.77 19.2111C601.41 20.8606 601.41 23.5352 599.77 25.1849L551.47 73.7628C549.83 75.4124 547.17 75.4124 545.53 73.7627Z" fill="white" fill-opacity="0.06"/>
<path d="M666.53 187.763L639.23 160.306C637.59 158.656 637.59 155.982 639.23 154.332L645.17 148.358C646.81 146.708 649.469 146.708 651.109 148.358L669.5 166.854L708.891 127.237C710.531 125.588 713.19 125.588 714.83 127.237L720.77 133.211C722.41 134.861 722.41 137.535 720.77 139.185L672.47 187.763C670.83 189.412 668.17 189.412 666.53 187.763Z" fill="white" fill-opacity="0.06"/>
<path fill-rule="evenodd" clip-rule="evenodd" d="M679 66C691.703 66 702 55.7025 702 43C702 30.2975 691.703 20 679 20C666.297 20 656 30.2975 656 43C656 55.7025 666.297 66 679 66ZM679 86C702.748 86 722 66.7482 722 43C722 19.2518 702.748 0 679 0C655.252 0 636 19.2518 636 43C636 66.7482 655.252 86 679 86Z" fill="white" fill-opacity="0.06"/>
<path fill-rule="evenodd" clip-rule="evenodd" d="M560 180C572.703 180 583 169.703 583 157C583 144.297 572.703 134 560 134C547.297 134 537 144.297 537 157C537 169.703 547.297 180 560 180ZM560 200C583.748 200 603 180.748 603 157C603 133.252 583.748 114 560 114C536.252 114 517 133.252 517 157C517 180.748 536.252 200 560 200Z" fill="white" fill-opacity="0.06"/>
<path d="M545.53 304.763L518.23 277.306C516.59 275.656 516.59 272.982 518.23 271.332L524.17 265.358C525.81 263.708 528.469 263.708 530.109 265.358L548.5 283.854L587.891 244.237C589.531 242.588 592.19 242.588 593.83 244.237L599.77 250.211C601.41 251.861 601.41 254.535 599.77 256.185L551.47 304.763C549.83 306.412 547.17 306.412 545.53 304.763Z" fill="white" fill-opacity="0.06"/>
<path d="M666.53 418.763L639.23 391.306C637.59 389.656 637.59 386.982 639.23 385.332L645.17 379.358C646.81 377.708 649.469 377.708 651.109 379.358L669.5 397.854L708.891 358.237C710.531 356.588 713.19 356.588 714.83 358.237L720.77 364.211C722.41 365.861 722.41 368.535 720.77 370.185L672.47 418.763C670.83 420.412 668.17 420.412 666.53 418.763Z" fill="white" fill-opacity="0.06"/>
<path fill-rule="evenodd" clip-rule="evenodd" d="M679 297C691.703 297 702 286.703 702 274C702 261.297 691.703 251 679 251C666.297 251 656 261.297 656 274C656 286.703 666.297 297 679 297ZM679 317C702.748 317 722 297.748 722 274C722 250.252 702.748 231 679 231C655.252 231 636 250.252 636 274C636 297.748 655.252 317 679 317Z" fill="white" fill-opacity="0.06"/>
<path fill-rule="evenodd" clip-rule="evenodd" d="M560 411C572.703 411 583 400.703 583 388C583 375.297 572.703 365 560 365C547.297 365 537 375.297 537 388C537 400.703 547.297 411 560 411ZM560 431C583.748 431 603 411.748 603 388C603 364.252 583.748 345 560 345C536.252 345 517 364.252 517 388C517 411.748 536.252 431 560 431Z" fill="white" fill-opacity="0.06"/>
<path d="M796.53 73.7627L769.23 46.3057C767.59 44.6561 767.59 41.9815 769.23 40.3318L775.17 34.3579C776.81 32.7082 779.469 32.7082 781.109 34.3579L799.5 52.8541L838.891 13.2372C840.531 11.5876 843.19 11.5876 844.83 13.2372L850.77 19.2111C852.41 20.8606 852.41 23.5352 850.77 25.1849L802.47 73.7628C800.83 75.4124 798.17 75.4124 796.53 73.7627Z" fill="white" fill-opacity="0.06"/>
<path d="M929.53 187.763L902.23 160.306C900.59 158.656 900.59 155.982 902.23 154.332L908.17 148.358C909.81 146.708 912.469 146.708 914.109 148.358L932.5 166.854L971.891 127.237C973.531 125.588 976.19 125.588 977.83 127.237L983.77 133.211C985.41 134.861 985.41 137.535 983.77 139.185L935.47 187.763C933.83 189.412 931.17 189.412 929.53 187.763Z" fill="white" fill-opacity="0.06"/>
<path fill-rule="evenodd" clip-rule="evenodd" d="M942 66C954.703 66 965 55.7025 965 43C965 30.2975 954.703 20 942 20C929.297 20 919 30.2975 919 43C919 55.7025 929.297 66 942 66ZM942 86C965.748 86 985 66.7482 985 43C985 19.2518 965.748 0 942 0C918.252 0 899 19.2518 899 43C899 66.7482 918.252 86 942 86Z" fill="white" fill-opacity="0.06"/>
<path fill-rule="evenodd" clip-rule="evenodd" d="M811 180C823.703 180 834 169.703 834 157C834 144.297 823.703 134 811 134C798.297 134 788 144.297 788 157C788 169.703 798.297 180 811 180ZM811 200C834.748 200 854 180.748 854 157C854 133.252 834.748 114 811 114C787.252 114 768 133.252 768 157C768 180.748 787.252 200 811 200Z" fill="white" fill-opacity="0.06"/>
<path d="M796.53 304.763L769.23 277.306C767.59 275.656 767.59 272.982 769.23 271.332L775.17 265.358C776.81 263.708 779.469 263.708 781.109 265.358L799.5 283.854L838.891 244.237C840.531 242.588 843.19 242.588 844.83 244.237L850.77 250.211C852.41 251.861 852.41 254.535 850.77 256.185L802.47 304.763C800.83 306.412 798.17 306.412 796.53 304.763Z" fill="white" fill-opacity="0.06"/>
<path d="M929.53 418.763L902.23 391.306C900.59 389.656 900.59 386.982 902.23 385.332L908.17 379.358C909.81 377.708 912.469 377.708 914.109 379.358L932.5 397.854L971.891 358.237C973.531 356.588 976.19 356.588 977.83 358.237L983.77 364.211C985.41 365.861 985.41 368.535 983.77 370.185L935.47 418.763C933.83 420.412 931.17 420.412 929.53 418.763Z" fill="white" fill-opacity="0.06"/>
<path fill-rule="evenodd" clip-rule="evenodd" d="M942 297C954.703 297 965 286.703 965 274C965 261.297 954.703 251 942 251C929.297 251 919 261.297 919 274C919 286.703 929.297 297 942 297ZM942 317C965.748 317 985 297.748 985 274C985 250.252 965.748 231 942 231C918.252 231 899 250.252 899 274C899 297.748 918.252 317 942 317Z" fill="white" fill-opacity="0.06"/>
<path fill-rule="evenodd" clip-rule="evenodd" d="M811 411C823.703 411 834 400.703 834 388C834 375.297 823.703 365 811 365C798.297 365 788 375.297 788 388C788 400.703 798.297 411 811 411ZM811 431C834.748 431 854 411.748 854 388C854 364.252 834.748 345 811 345C787.252 345 768 364.252 768 388C768 411.748 787.252 431 811 431Z" fill="white" fill-opacity="0.06"/>
<path d="M545.53 521.763L518.23 494.306C516.59 492.656 516.59 489.982 518.23 488.332L524.17 482.358C525.81 480.708 528.469 480.708 530.109 482.358L548.5 500.854L587.891 461.237C589.531 459.588 592.19 459.588 593.83 461.237L599.77 467.211C601.41 468.861 601.41 471.535 599.77 473.185L551.47 521.763C549.83 523.412 547.17 523.412 545.53 521.763Z" fill="white" fill-opacity="0.06"/>
<path d="M666.53 635.763L639.23 608.306C637.59 606.656 637.59 603.982 639.23 602.332L645.17 596.358C646.81 594.708 649.469 594.708 651.109 596.358L669.5 614.854L708.891 575.237C710.531 573.588 713.19 573.588 714.83 575.237L720.77 581.211C722.41 582.861 722.41 585.535 720.77 587.185L672.47 635.763C670.83 637.412 668.17 637.412 666.53 635.763Z" fill="white" fill-opacity="0.06"/>
<path fill-rule="evenodd" clip-rule="evenodd" d="M679 514C691.703 514 702 503.703 702 491C702 478.297 691.703 468 679 468C666.297 468 656 478.297 656 491C656 503.703 666.297 514 679 514ZM679 534C702.748 534 722 514.748 722 491C722 467.252 702.748 448 679 448C655.252 448 636 467.252 636 491C636 514.748 655.252 534 679 534Z" fill="white" fill-opacity="0.06"/>
<path fill-rule="evenodd" clip-rule="evenodd" d="M560 628C572.703 628 583 617.703 583 605C583 592.297 572.703 582 560 582C547.297 582 537 592.297 537 605C537 617.703 547.297 628 560 628ZM560 648C583.748 648 603 628.748 603 605C603 581.252 583.748 562 560 562C536.252 562 517 581.252 517 605C517 628.748 536.252 648 560 648Z" fill="white" fill-opacity="0.06"/>
<path d="M545.53 752.763L518.23 725.306C516.59 723.656 516.59 720.982 518.23 719.332L524.17 713.358C525.81 711.708 528.469 711.708 530.109 713.358L548.5 731.854L587.891 692.237C589.531 690.588 592.19 690.588 593.83 692.237L599.77 698.211C601.41 699.861 601.41 702.535 599.77 704.185L551.47 752.763C549.83 754.412 547.17 754.412 545.53 752.763Z" fill="white" fill-opacity="0.06"/>
<path d="M666.53 866.763L639.23 839.306C637.59 837.656 637.59 834.982 639.23 833.332L645.17 827.358C646.81 825.708 649.469 825.708 651.109 827.358L669.5 845.854L708.891 806.237C710.531 804.588 713.19 804.588 714.83 806.237L720.77 812.211C722.41 813.861 722.41 816.535 720.77 818.185L672.47 866.763C670.83 868.412 668.17 868.412 666.53 866.763Z" fill="white" fill-opacity="0.06"/>
<path fill-rule="evenodd" clip-rule="evenodd" d="M679 745C691.703 745 702 734.703 702 722C702 709.297 691.703 699 679 699C666.297 699 656 709.297 656 722C656 734.703 666.297 745 679 745ZM679 765C702.748 765 722 745.748 722 722C722 698.252 702.748 679 679 679C655.252 679 636 698.252 636 722C636 745.748 655.252 765 679 765Z" fill="white" fill-opacity="0.06"/>
<path fill-rule="evenodd" clip-rule="evenodd" d="M560 859C572.703 859 583 848.703 583 836C583 823.297 572.703 813 560 813C547.297 813 537 823.297 537 836C537 848.703 547.297 859 560 859ZM560 879C583.748 879 603 859.748 603 836C603 812.252 583.748 793 560 793C536.252 793 517 812.252 517 836C517 859.748 536.252 879 560 879Z" fill="white" fill-opacity="0.06"/>
<path d="M796.53 521.763L769.23 494.306C767.59 492.656 767.59 489.982 769.23 488.332L775.17 482.358C776.81 480.708 779.469 480.708 781.109 482.358L799.5 500.854L838.891 461.237C840.531 459.588 843.19 459.588 844.83 461.237L850.77 467.211C852.41 468.861 852.41 471.535 850.77 473.185L802.47 521.763C800.83 523.412 798.17 523.412 796.53 521.763Z" fill="white" fill-opacity="0.06"/>
<path d="M929.53 635.763L902.23 608.306C900.59 606.656 900.59 603.982 902.23 602.332L908.17 596.358C909.81 594.708 912.469 594.708 914.109 596.358L932.5 614.854L971.891 575.237C973.531 573.588 976.19 573.588 977.83 575.237L983.77 581.211C985.41 582.861 985.41 585.535 983.77 587.185L935.47 635.763C933.83 637.412 931.17 637.412 929.53 635.763Z" fill="white" fill-opacity="0.06"/>
<path fill-rule="evenodd" clip-rule="evenodd" d="M942 514C954.703 514 965 503.703 965 491C965 478.297 954.703 468 942 468C929.297 468 919 478.297 919 491C919 503.703 929.297 514 942 514ZM942 534C965.748 534 985 514.748 985 491C985 467.252 965.748 448 942 448C918.252 448 899 467.252 899 491C899 514.748 918.252 534 942 534Z" fill="white" fill-opacity="0.06"/>
<path fill-rule="evenodd" clip-rule="evenodd" d="M811 628C823.703 628 834 617.703 834 605C834 592.297 823.703 582 811 582C798.297 582 788 592.297 788 605C788 617.703 798.297 628 811 628ZM811 648C834.748 648 854 628.748 854 605C854 581.252 834.748 562 811 562C787.252 562 768 581.252 768 605C768 628.748 787.252 648 811 648Z" fill="white" fill-opacity="0.06"/>
<path d="M796.53 752.763L769.23 725.306C767.59 723.656 767.59 720.982 769.23 719.332L775.17 713.358C776.81 711.708 779.469 711.708 781.109 713.358L799.5 731.854L838.891 692.237C840.531 690.588 843.19 690.588 844.83 692.237L850.77 698.211C852.41 699.861 852.41 702.535 850.77 704.185L802.47 752.763C800.83 754.412 798.17 754.412 796.53 752.763Z" fill="white" fill-opacity="0.06"/>
<path d="M929.53 866.763L902.23 839.306C900.59 837.656 900.59 834.982 902.23 833.332L908.17 827.358C909.81 825.708 912.469 825.708 914.109 827.358L932.5 845.854L971.891 806.237C973.531 804.588 976.19 804.588 977.83 806.237L983.77 812.211C985.41 813.861 985.41 816.535 983.77 818.185L935.47 866.763C933.83 868.412 931.17 868.412 929.53 866.763Z" fill="white" fill-opacity="0.06"/>
<path fill-rule="evenodd" clip-rule="evenodd" d="M942 745C954.703 745 965 734.703 965 722C965 709.297 954.703 699 942 699C929.297 699 919 709.297 919 722C919 734.703 929.297 745 942 745ZM942 765C965.748 765 985 745.748 985 722C985 698.252 965.748 679 942 679C918.252 679 899 698.252 899 722C899 745.748 918.252 765 942 765Z" fill="white" fill-opacity="0.06"/>
<path fill-rule="evenodd" clip-rule="evenodd" d="M811 859C823.703 859 834 848.703 834 836C834 823.297 823.703 813 811 813C798.297 813 788 823.297 788 836C788 848.703 798.297 859 811 859ZM811 879C834.748 879 854 859.748 854 836C854 812.252 834.748 793 811 793C787.252 793 768 812.252 768 836C768 859.748 787.252 879 811 879Z" fill="white" fill-opacity="0.06"/>
<path d="M545.53 969.763L518.23 942.306C516.59 940.656 516.59 937.982 518.23 936.332L524.17 930.358C525.81 928.708 528.469 928.708 530.109 930.358L548.5 948.854L587.891 909.237C589.531 907.588 592.19 907.588 593.83 909.237L599.77 915.211C601.41 916.861 601.41 919.535 599.77 921.185L551.47 969.763C549.83 971.412 547.17 971.412 545.53 969.763Z" fill="white" fill-opacity="0.06"/>
<path d="M666.53 1083.76L639.23 1056.31C637.59 1054.66 637.59 1051.98 639.23 1050.33L645.17 1044.36C646.81 1042.71 649.469 1042.71 651.109 1044.36L669.5 1062.85L708.891 1023.24C710.531 1021.59 713.19 1021.59 714.83 1023.24L720.77 1029.21C722.41 1030.86 722.41 1033.54 720.77 1035.18L672.47 1083.76C670.83 1085.41 668.17 1085.41 666.53 1083.76Z" fill="white" fill-opacity="0.06"/>
<path fill-rule="evenodd" clip-rule="evenodd" d="M679 962C691.703 962 702 951.703 702 939C702 926.297 691.703 916 679 916C666.297 916 656 926.297 656 939C656 951.703 666.297 962 679 962ZM679 982C702.748 982 722 962.748 722 939C722 915.252 702.748 896 679 896C655.252 896 636 915.252 636 939C636 962.748 655.252 982 679 982Z" fill="white" fill-opacity="0.06"/>
<path fill-rule="evenodd" clip-rule="evenodd" d="M560 1076C572.703 1076 583 1065.7 583 1053C583 1040.3 572.703 1030 560 1030C547.297 1030 537 1040.3 537 1053C537 1065.7 547.297 1076 560 1076ZM560 1096C583.748 1096 603 1076.75 603 1053C603 1029.25 583.748 1010 560 1010C536.252 1010 517 1029.25 517 1053C517 1076.75 536.252 1096 560 1096Z" fill="white" fill-opacity="0.06"/>
<path d="M545.53 1200.76L518.23 1173.31C516.59 1171.66 516.59 1168.98 518.23 1167.33L524.17 1161.36C525.81 1159.71 528.469 1159.71 530.109 1161.36L548.5 1179.85L587.891 1140.24C589.531 1138.59 592.19 1138.59 593.83 1140.24L599.77 1146.21C601.41 1147.86 601.41 1150.54 599.77 1152.18L551.47 1200.76C549.83 1202.41 547.17 1202.41 545.53 1200.76Z" fill="white" fill-opacity="0.06"/>
<path d="M666.53 1314.76L639.23 1287.31C637.59 1285.66 637.59 1282.98 639.23 1281.33L645.17 1275.36C646.81 1273.71 649.469 1273.71 651.109 1275.36L669.5 1293.85L708.891 1254.24C710.531 1252.59 713.19 1252.59 714.83 1254.24L720.77 1260.21C722.41 1261.86 722.41 1264.54 720.77 1266.18L672.47 1314.76C670.83 1316.41 668.17 1316.41 666.53 1314.76Z" fill="white" fill-opacity="0.06"/>
<path fill-rule="evenodd" clip-rule="evenodd" d="M679 1193C691.703 1193 702 1182.7 702 1170C702 1157.3 691.703 1147 679 1147C666.297 1147 656 1157.3 656 1170C656 1182.7 666.297 1193 679 1193ZM679 1213C702.748 1213 722 1193.75 722 1170C722 1146.25 702.748 1127 679 1127C655.252 1127 636 1146.25 636 1170C636 1193.75 655.252 1213 679 1213Z" fill="white" fill-opacity="0.06"/>
<path fill-rule="evenodd" clip-rule="evenodd" d="M560 1307C572.703 1307 583 1296.7 583 1284C583 1271.3 572.703 1261 560 1261C547.297 1261 537 1271.3 537 1284C537 1296.7 547.297 1307 560 1307ZM560 1327C583.748 1327 603 1307.75 603 1284C603 1260.25 583.748 1241 560 1241C536.252 1241 517 1260.25 517 1284C517 1307.75 536.252 1327 560 1327Z" fill="white" fill-opacity="0.06"/>
<path d="M796.53 969.763L769.23 942.306C767.59 940.656 767.59 937.982 769.23 936.332L775.17 930.358C776.81 928.708 779.469 928.708 781.109 930.358L799.5 948.854L838.891 909.237C840.531 907.588 843.19 907.588 844.83 909.237L850.77 915.211C852.41 916.861 852.41 919.535 850.77 921.185L802.47 969.763C800.83 971.412 798.17 971.412 796.53 969.763Z" fill="white" fill-opacity="0.06"/>
<path d="M929.53 1083.76L902.23 1056.31C900.59 1054.66 900.59 1051.98 902.23 1050.33L908.17 1044.36C909.81 1042.71 912.469 1042.71 914.109 1044.36L932.5 1062.85L971.891 1023.24C973.531 1021.59 976.19 1021.59 977.83 1023.24L983.77 1029.21C985.41 1030.86 985.41 1033.54 983.77 1035.18L935.47 1083.76C933.83 1085.41 931.17 1085.41 929.53 1083.76Z" fill="white" fill-opacity="0.06"/>
<path fill-rule="evenodd" clip-rule="evenodd" d="M942 962C954.703 962 965 951.703 965 939C965 926.297 954.703 916 942 916C929.297 916 919 926.297 919 939C919 951.703 929.297 962 942 962ZM942 982C965.748 982 985 962.748 985 939C985 915.252 965.748 896 942 896C918.252 896 899 915.252 899 939C899 962.748 918.252 982 942 982Z" fill="white" fill-opacity="0.06"/>
<path fill-rule="evenodd" clip-rule="evenodd" d="M811 1076C823.703 1076 834 1065.7 834 1053C834 1040.3 823.703 1030 811 1030C798.297 1030 788 1040.3 788 1053C788 1065.7 798.297 1076 811 1076ZM811 1096C834.748 1096 854 1076.75 854 1053C854 1029.25 834.748 1010 811 1010C787.252 1010 768 1029.25 768 1053C768 1076.75 787.252 1096 811 1096Z" fill="white" fill-opacity="0.06"/>
<path d="M796.53 1200.76L769.23 1173.31C767.59 1171.66 767.59 1168.98 769.23 1167.33L775.17 1161.36C776.81 1159.71 779.469 1159.71 781.109 1161.36L799.5 1179.85L838.891 1140.24C840.531 1138.59 843.19 1138.59 844.83 1140.24L850.77 1146.21C852.41 1147.86 852.41 1150.54 850.77 1152.18L802.47 1200.76C800.83 1202.41 798.17 1202.41 796.53 1200.76Z" fill="white" fill-opacity="0.06"/>
<path d="M929.53 1314.76L902.23 1287.31C900.59 1285.66 900.59 1282.98 902.23 1281.33L908.17 1275.36C909.81 1273.71 912.469 1273.71 914.109 1275.36L932.5 1293.85L971.891 1254.24C973.531 1252.59 976.19 1252.59 977.83 1254.24L983.77 1260.21C985.41 1261.86 985.41 1264.54 983.77 1266.18L935.47 1314.76C933.83 1316.41 931.17 1316.41 929.53 1314.76Z" fill="white" fill-opacity="0.06"/>
<path fill-rule="evenodd" clip-rule="evenodd" d="M942 1193C954.703 1193 965 1182.7 965 1170C965 1157.3 954.703 1147 942 1147C929.297 1147 919 1157.3 919 1170C919 1182.7 929.297 1193 942 1193ZM942 1213C965.748 1213 985 1193.75 985 1170C985 1146.25 965.748 1127 942 1127C918.252 1127 899 1146.25 899 1170C899 1193.75 918.252 1213 942 1213Z" fill="white" fill-opacity="0.06"/>
<path fill-rule="evenodd" clip-rule="evenodd" d="M811 1307C823.703 1307 834 1296.7 834 1284C834 1271.3 823.703 1261 811 1261C798.297 1261 788 1271.3 788 1284C788 1296.7 798.297 1307 811 1307ZM811 1327C834.748 1327 854 1307.75 854 1284C854 1260.25 834.748 1241 811 1241C787.252 1241 768 1260.25 768 1284C768 1307.75 787.252 1327 811 1327Z" fill="white" fill-opacity="0.06"/>
</svg>
